<mxfile host="app.diagrams.net" modified="2023-05-08T11:04:29.459Z" agent="Mozilla/5.0 (Windows NT 10.0; Win64; x64) AppleWebKit/537.36 (KHTML, like Gecko) Chrome/112.0.0.0 Safari/537.36" version="21.2.9" etag="k_GNSuU8I2yfCwG_vLt6" type="github">
  <diagram name="Page-1" id="ilRZcu7ZaoRpu6IuJ75V">
    <mxGraphModel>
      <root>
        <mxCell id="0" />
        <mxCell id="1" parent="0" />
      </root>
    </mxGraphModel>
  </diagram>
</mxfile>
